<?xml version="1.0" standalone="no"?>
<!DOCTYPE svg PUBLIC "-//W3C//DTD SVG 20010904//EN"
 "http://www.w3.org/TR/2001/REC-SVG-20010904/DTD/svg10.dtd">
<svg version="1.0" xmlns="http://www.w3.org/2000/svg"
 width="512.000000pt" height="512.000000pt" viewBox="0 0 512.000000 512.000000"
 preserveAspectRatio="xMidYMid meet">

<g transform="translate(0.000000,512.000000) scale(0.100000,-0.100000)"
fill="#000000" stroke="none">
<path d="M2445 5084 c-135 -52 -283 -129 -395 -203 l-101 -67 -92 9 c-159 15
-513 -14 -572 -46 -27 -15 -77 -72 -147 -167 -77 -105 -104 -148 -173 -283
l-62 -118 -107 -54 c-187 -95 -432 -270 -455 -325 -33 -82 -56 -332 -47 -523
l6 -148 -61 -92 c-68 -103 -185 -336 -221 -439 l-23 -68 23 -67 c54 -154 169
-377 258 -499 l30 -41 -8 -94 c-15 -159 11 -495 43 -569 24 -56 263 -228 452
-326 l118 -61 53 -104 c95 -188 263 -425 322 -457 51 -27 233 -46 459 -47
l230 -2 85 -57 c144 -97 440 -236 501 -236 69 0 400 160 546 263 l61 43 94 -9
c160 -15 514 14 573 46 66 36 242 289 337 480 l43 88 109 55 c163 82 422 261
450 312 34 59 61 338 52 535 l-6 148 60 92 c100 152 240 447 240 506 0 64
-137 358 -239 511 l-67 101 9 87 c15 155 -14 520 -46 577 -36 64 -246 214
-449 320 l-117 61 -56 109 c-89 172 -261 419 -313 449 -59 34 -332 61 -530 53
l-154 -7 -91 60 c-159 105 -447 241 -509 240 -13 -1 -63 -17 -113 -36z m234
-175 c355 -151 647 -404 791 -685 80 -155 130 -364 130 -539 0 -403 -236 -774
-604 -946 -44 -20 -94 -41 -111 -45 -30 -7 -29 -7 21 52 139 162 233 357 275
569 21 103 18 349 -5 455 -83 385 -350 722 -711 896 -60 29 -150 66 -198 81
l-88 29 83 47 c102 57 264 126 297 127 13 0 67 -18 120 -41z m-781 -250 c480
-52 829 -276 1024 -655 180 -349 150 -761 -77 -1079 -50 -71 -103 -122 -91
-90 4 11 14 63 22 115 43 287 -27 593 -191 841 -62 92 -180 216 -274 287 -155
117 -387 215 -586 248 -132 21 -370 14 -499 -15 -49 -12 -92 -19 -94 -16 -8 7
78 144 155 246 l73 97 102 12 c57 6 112 13 123 14 51 8 225 5 313 -5z m1774
-10 l87 -12 49 -61 c178 -220 314 -508 357 -753 16 -92 21 -286 10 -369 -26
-186 -115 -404 -224 -549 -53 -70 -155 -169 -227 -221 -145 -104 -358 -178
-543 -190 -87 -6 -245 7 -287 23 -10 4 17 18 75 39 389 138 671 464 768 886
26 113 23 382 -5 515 -52 240 -150 433 -322 632 l-73 84 124 -6 c68 -3 163
-11 211 -18z m-1961 -484 c232 -40 457 -154 613 -311 228 -227 344 -570 296
-874 -18 -111 -20 -112 -55 -12 -142 397 -486 689 -910 773 -103 20 -368 18
-474 -4 -252 -54 -458 -157 -654 -330 l-80 -71 6 125 c3 68 11 163 18 210 l12
86 56 45 c217 176 520 319 766 362 106 19 302 19 406 1z m2684 -231 c48 -30
123 -82 165 -115 l78 -60 13 -97 c19 -133 17 -421 -4 -542 -73 -425 -296 -744
-643 -922 -168 -86 -285 -113 -484 -112 -177 1 -291 28 -445 103 -95 47 -212
126 -245 166 -14 17 -13 18 5 11 55 -21 226 -38 330 -33 521 25 939 348 1110
861 52 155 68 272 62 456 -4 103 -13 185 -27 244 -11 50 -20 91 -20 93 0 10
26 -3 105 -53z m-2809 -345 c160 -22 346 -100 476 -198 79 -60 191 -178 241
-254 43 -64 111 -205 123 -252 7 -30 7 -29 -52 21 -363 312 -864 381 -1293
178 -199 -94 -388 -250 -511 -421 -73 -103 -157 -271 -197 -396 l-29 -89 -51
94 c-59 107 -123 257 -123 288 0 33 71 197 135 311 111 197 285 397 446 511
235 168 552 247 835 207z m150 -560 c153 -21 331 -93 459 -184 71 -51 122
-103 90 -91 -61 22 -227 38 -340 32 -372 -19 -698 -194 -917 -493 -106 -144
-203 -379 -234 -568 -21 -132 -14 -370 15 -499 12 -49 19 -91 17 -94 -10 -10
-234 139 -317 210 -38 33 -54 152 -53 388 1 321 66 567 206 782 246 377 658
575 1074 517z m3107 -209 c24 -47 60 -122 78 -168 31 -78 32 -85 21 -130 -19
-70 -132 -294 -200 -397 -224 -336 -522 -537 -875 -589 -369 -55 -695 54 -942
315 -38 41 -87 100 -108 131 -43 65 -113 208 -123 253 -7 29 -6 28 52 -21 479
-411 1171 -386 1641 60 160 151 282 346 354 564 38 115 30 116 102 -18z
m-2703 -200 c111 -18 112 -20 12 -55 -389 -139 -679 -474 -768 -885 -22 -103
-26 -367 -6 -475 45 -246 160 -479 335 -678 l71 -80 -125 6 c-68 3 -164 11
-212 18 l-88 12 -68 91 c-230 306 -351 631 -351 941 0 553 372 1013 888 1100
96 16 227 18 312 5z m56 -269 c-393 -486 -361 -1154 76 -1617 152 -160 328
-271 551 -349 l118 -41 -93 -51 c-107 -59 -257 -123 -288 -123 -33 0 -197 71
-311 135 -324 183 -572 461 -668 750 -73 224 -79 483 -14 689 28 89 88 215
135 285 43 62 162 185 229 237 84 65 274 163 316 164 7 0 -16 -35 -51 -79z
m157 -121 c-22 -95 -22 -362 0 -461 85 -381 305 -669 643 -841 219 -112 355
-143 614 -142 153 0 201 4 279 22 52 12 96 20 99 18 6 -7 -63 -119 -130 -211
-97 -135 -93 -131 -183 -144 -340 -50 -696 -2 -956 128 -408 204 -662 624
-636 1049 14 219 105 450 243 610 20 24 38 42 39 40 2 -2 -4 -32 -12 -68z
m246 -186 c155 -331 465 -574 843 -661 113 -26 382 -23 515 5 241 52 443 155
636 325 l80 71 -6 -125 c-3 -68 -11 -163 -18 -211 l-12 -87 -63 -50 c-224
-180 -505 -313 -751 -356 -92 -16 -286 -21 -369 -10 -248 35 -499 158 -666
328 -215 218 -329 553 -289 850 17 126 21 130 46 54 13 -36 37 -96 54 -133z"/>
</g>
</svg>
